# xmcd CD database file
# Copyright (C) 1995-1998 Ti Kan
#
# Track frame offsets:
#	150
#	12504
#	27276
#	38014
#	52040
#	62214
#	73739
#	80714
#	88733
#	127522
#	140035
#	149477
#	160452
#	170782
#	185321
#
# Disc length: 2620 seconds
#
# Revision: 2
# Processed by: cddbd v1.4PL0 Copyright (c) Steve Scherf et al.
# Submitted via: CDex 1.30Release
#
DISCID=dc0a3a0f
DTITLE=Doug Sahm and The Sir Douglas Quintet - She's About A Mover: The Best
DTITLE=Of
DYEAR=1999
DGENRE=Country
TTITLE0=Nuevo Laredo
TTITLE1=It's A Man Down There
TTITLE2=She's About A Mover
TTITLE3=T-Bone Shuffle
TTITLE4=The Rains Came
TTITLE5=Isabella
TTITLE6=You've Got Your Good Thing Down
TTITLE7=Quarter To Three
TTITLE8=Funky Side Of Your Mind
TTITLE9=Seguin
TTITLE10=Just A Teeny Bit Of Your Love
TTITLE11=Bacon Fat
TTITLE12=Blue Norther
TTITLE13=Dallas Alice
TTITLE14=Revolutionary Ways
EXTD=YEAR: 1999 ID3G:   2
EXTT0=
EXTT1=
EXTT2=
EXTT3=
EXTT4=
EXTT5=
EXTT6=
EXTT7=
EXTT8=
EXTT9=
EXTT10=
EXTT11=
EXTT12=
EXTT13=
EXTT14=
PLAYORDER=
